<svg xmlns="http://www.w3.org/2000/svg" width="374.927" height="320.164" viewBox="0 0 374.927 320.164">
  <g id="Ilustracija" transform="translate(-0.236 -268.867)">
    <path id="Random_bg" data-name="Random bg" d="M143.314,76.262C207.656,58.4,230.254,32.5,276.184,46.674c61.4,20.617,36.408,72.7,65.509,126.485,12.532,28.758,21.975,58.194,20.465,83.985-1.192,20.368-9.545,37.564-28.64,56.659-42.815,42.815-108.558,19.011-153.77,19.011-51.169,0-153.451,53.328-184.923,17.647C-31.708,320.38,21.052,268.31,24.4,236.488c7.816-45.22-34.753-91.139-5.024-131.2S78.973,94.127,143.314,76.262Z" transform="translate(12.845 226.273)" fill="#2962ff" opacity="0.08"/>
    <g id="Ona" transform="translate(159.17 540.565) rotate(177)">
      <ellipse id="Sjena" cx="57.647" cy="15.381" rx="57.647" ry="15.381" transform="translate(1.227 -1.26) rotate(3)" opacity="0.08"/>
      <g id="Noge" transform="translate(36.806 5.292)">
        <path id="Desna_noga" data-name="Desna noga" d="M4.749,0S2.19,16.054,1,40.769-.176,103.033-.176,103.033l22.666,1.3s-5.768-33.4-8.811-58.358A454.053,454.053,0,0,1,10.456.326Z" transform="translate(3.165 13.912)" fill="#2962ff"/>
        <path id="Path_46" data-name="Path 46" d="M7.144,17.794C5.36,17.758,3.487,11.918,1.93,9.155s-1.487-6.7.886-7.217c.738-.162,2.448-.914,5.064,1.751s1.34,1.47,3.7,4.513,2.62,3,3.044,4.338.363,5.9-.744,7.145c0,0,.017-2.119-.844-2.84-.9-.445-1.243.433-2.6.658A31.531,31.531,0,0,1,7.144,17.794Z" transform="matrix(0.998, -0.07, 0.07, 0.998, -1.103, 2.982)" fill="#9e9e9e"/>
        <path id="Sjena-2" data-name="Sjena" d="M4.783,11.152A108.418,108.418,0,0,1,1.4.837L4.659,5.454a14.267,14.267,0,0,1,2.367,5.858C7.328,14.291,6.473,15.254,4.783,11.152Z" transform="matrix(0.906, 0.423, -0.423, 0.906, 19.306, 83.515)" opacity="0.3"/>
        <path id="Lijeva_noga" data-name="Lijeva noga" d="M-1.4,96.891,23,101.314s4.415-30.473,8.542-54.554,9.37-45.7,9.37-45.7L35.061,0S26.954,18.879,18.189,42.121-1.4,96.891-1.4,96.891Z" transform="translate(4.124 21.201) rotate(-7)" fill="#2962ff"/>
        <path id="Path_48" data-name="Path 48" d="M6.912,17.26C5.128,17.223,4.823,12.146,2.824,9.6S.667,1.989,3.041,1.469c.738-.162,2.273-.436,4.908,1.986s1.128.855,3.492,3.9,2.585,2.836,3.009,4.178.366,5.963-.741,7.207c0,0,.064-2.843-.8-3.564-.9-.445-1.293,1.1-2.648,1.32S6.912,17.26,6.912,17.26Z" transform="translate(33.042 4.228) rotate(8)" fill="#9e9e9e"/>
      </g>
      <g id="Lijeva_ruka" data-name="Lijeva ruka" transform="translate(0.886 166.304) rotate(-8)">
        <path id="Nadlaktica" d="M28.4,33.914s-4.789-8.2-11.7-11.622-9.848-5.7-12.99-5.651C-3.657,21.339-6.613,13.58.4,9.418c3.365-2,10.279.034,17.716,2.687a46.181,46.181,0,0,1,13.514,8.144Z" transform="matrix(0.899, -0.438, 0.438, 0.899, 8.463, 13.51)" fill="#f57c00"/>
        <path id="Dlan" d="M.8-.012s-2,4.792.047,7.986S5.327,9.036,5.979,7.4,4.885,4.03,5.609,4.1s.627,2.187,1.449,2.02,1.009-1.031.6-2.037a9.7,9.7,0,0,0-1.779-2.57C5.2.7,5.726.18,5.726.18Z" transform="translate(5.338 45.18) rotate(21)" fill="#a1887f"/>
        <path id="Podlaktica" d="M13.939.516C18.906,2.031,23.925,3.871,28,4.246A64.028,64.028,0,0,1,35.348,5.36l-1.671,5.628s-.971-.366-7.207-.765-13.39-1.254-17-2.909C5.039,2.8,3.862-2.559,13.939.516Z" transform="translate(21.284 14.249) rotate(99)" fill="#f57c00"/>
      </g>
      <g id="Tijelo" transform="translate(38.331 114.242)">
        <path id="Vrat" d="M.6,0a16.258,16.258,0,0,1,.682,6.09A32.154,32.154,0,0,1,0,11.5l11.012.577a15.3,15.3,0,0,1-.855-5.523A20.918,20.918,0,0,1,11.615.577Z" transform="translate(14.847 76.37)" fill="#a1887f"/>
        <path id="Sjena-3" data-name="Sjena" d="M2.5,13.949A19.886,19.886,0,0,1,2,9.661c-.084-1.817.036-4.7.013-5.693C1.96,1.633,2,.7,2,.7l1.566.783L3.552,15.066Z" transform="translate(0.586 63.422) rotate(-29)" opacity="0.3"/>
        <path id="Glava" d="M9.374,29.923c6.319,0,11.441-6.7,11.441-14.962S15.693,0,9.374,0-1.052,6.071.237,14.729,3.055,29.923,9.374,29.923Z" transform="translate(9.632 83.007)" fill="#a1887f"/>
        <path id="Sjena-4" data-name="Sjena" d="M1.409,38.969A124.885,124.885,0,0,0,3.17,19.884,90.434,90.434,0,0,0,1.314,2.6l2.125-.041L5.006,21.427,3.36,38.962Z" transform="matrix(-0.017, 1, -1, -0.017, 40.44, 4.638)" opacity="0.3"/>
        <path id="Tijelo-2" data-name="Tijelo" d="M39.268,6.578S32.836,8.407,21.351,8.1A118.434,118.434,0,0,1,.027,5.483s2.633,7.126,2.6,20.23S.912,49.221.763,52.416c-.3,6.376.342,8.812,2.678,12.506C8.464,76.064,13.705,78.937,13.705,78.937a44.686,44.686,0,0,1,5.819-.534c2.939-.05,7.783,2.2,10.963-.075s4.427-6.291,6.473-12.78c3.789-17.036-2.04-20.066-1.623-36.312S39.268,6.578,39.268,6.578Z" transform="matrix(1, -0.017, 0.017, 1, 0, 0.757)" fill="#ff6d00"/>
      </g>
      <g id="Desna_ruka" data-name="Desna ruka" transform="matrix(0.996, 0.087, -0.087, 0.996, 65.187, 159.602)">
        <path id="Dlan-2" data-name="Dlan" d="M4.835.157A26.139,26.139,0,0,1,6.778,3.562c.618,1.513.7,3.256-.939,4.466S1.433,10.267.238,8.4.45.762.45.762Z" transform="matrix(-0.53, 0.848, -0.848, -0.53, 13.329, -15.456)" fill="#a1887f"/>
        <path id="Podlaktica-2" data-name="Podlaktica" d="M5.635,31.96-.121,30.625A181.118,181.118,0,0,1,7.737,6.955C13-5.895,19.937.461,17.472,8.565c-.925,3.039-3.038,4.871-6.836,10.948A40.58,40.58,0,0,0,5.635,31.96Z" transform="translate(41.704 -8.971) rotate(104)" fill="#ff6d00"/>
        <path id="Sjena-5" data-name="Sjena" d="M1.217,5.047a6.155,6.155,0,0,1,.047-2.562A2.529,2.529,0,0,1,2.458.924l-.085,3.83Z" transform="matrix(0.469, 0.883, -0.883, 0.469, 29.899, -0.304)" opacity="0.3"/>
        <path id="Sjena-6" data-name="Sjena" d="M-1.1-.689A37.625,37.625,0,0,0,.267,4.717c.618,1.356.975.912.975.912L.886.156Z" transform="translate(13.171 12.968) rotate(65)" opacity="0.3"/>
        <path id="Nadlaktica-2" data-name="Nadlaktica" d="M7.164,30.513,0,19.009S8.928,12.8,15.954,9.033,26.338-.641,32.444-1.433,40.172.4,37.7,5.055s-6.9,7.611-14.677,13.675S7.164,30.513,7.164,30.513Z" transform="translate(0 2.62)" fill="#ff6d00"/>
        <path id="Sjena-7" data-name="Sjena" d="M2.6,9.028c.012-2.605.323-3.748.855-4.339A9.429,9.429,0,0,1,8.149,2.344a11.1,11.1,0,0,1,4.6.34L3.59,12.33l-.821-.082A14.876,14.876,0,0,1,2.6,9.028Z" transform="matrix(1, 0.017, -0.017, 1, -3.76, 21.509)" opacity="0.3"/>
      </g>
      <path id="Kosa" d="M132.535,224.535c2.535-3.295,6.649-4.5,10.129-5.69s4.082-6.2,1.414-8.974-11.629-4.806-19.669-1.693-9.661,14.876-10.595,19.458-.321,13.888,2.121,19.518c2.163,4.988,11.459,8.3,16.6,3.819,1.727-1.507,1.082-9.979,0-15.41S130,227.83,132.535,224.535Z" transform="matrix(-0.999, -0.052, 0.052, -0.999, 181.893, 443.37)" fill="#ffd180"/>
    </g>
    <g id="On" transform="matrix(0.999, 0.052, -0.052, 0.999, 198.542, 286.038)">
      <ellipse id="Sjena-8" data-name="Sjena" cx="65.5" cy="14.5" rx="65.5" ry="14.5" transform="translate(17.224 224.368) rotate(-3)" opacity="0.08"/>
      <g id="Noge-2" data-name="Noge" transform="translate(34.866 113.192)">
        <path id="Desna_noga-2" data-name="Desna noga" d="M5.887,113.81S3.613,95.132,2.141,66.685,0,.019,0,.019L28.1-1.473S21.831,31.976,18.058,60.7s-5.1,52.732-5.1,52.732Z" transform="translate(22.612 4.306)" fill="#424242"/>
        <path id="Path_46-2" data-name="Path 46" d="M7.578,2.65c-2.027.041-3.852,7.493-6.171,10.438s-1.634,8.063,1.063,8.654c.839.184,2.792.495,5.785-2.257s2.332-3.035,5.018-6.493,2.783-2.772,3.265-4.3S16.727,1.413,15.469,0c0,0,.081,3.449-.9,4.268-1.018.506-1.474-1.534-3.014-1.789A15.168,15.168,0,0,0,7.578,2.65Z" transform="matrix(0.998, 0.07, -0.07, 0.998, 20.554, 110.654)" fill="#9e9e9e"/>
        <path id="Sjena-9" data-name="Sjena" d="M3.475,3.291C2,7.532,0,18.595,0,18.595l3.062-5.646S5.7,5.126,5.714,2.149,4.949-.95,3.475,3.291Z" transform="translate(38.14 23.073) rotate(-19)" opacity="0.3"/>
        <path id="Lijeva_noga-2" data-name="Lijeva noga" d="M.008,5.406,30.278.048s3.445,30.559,8.3,58.265,11.113,52.558,11.113,52.558l-7.259,1.289S32.657,90.174,22.052,63.486.008,5.406.008,5.406Z" transform="translate(38.496 -1.85) rotate(7)" fill="#424242"/>
        <path id="Path_48-2" data-name="Path 48" d="M8.066,1.357C6.039,1.4,4.7,7.818,1.986,10.632s-2.611,8.292.086,8.883c.839.184,3.537.673,6.53-2.079s1.225-1.962,3.911-5.42,3.867-3.141,4.349-4.666S17.255,1.413,16,0c0,0,.1,2.681-.879,3.5C14.1,4.006,13.644,1.966,12.1,1.711S8.066,1.357,8.066,1.357Z" transform="translate(57.564 109.187) rotate(-8)" fill="#9e9e9e"/>
      </g>
      <g id="Desna_ruka-2" data-name="Desna ruka" transform="matrix(0.946, -0.326, 0.326, 0.946, 13.398, 40.893)">
        <path id="Nadlaktica-3" data-name="Nadlaktica" d="M31.389,4.514c-2.106-4.037-2.676-.461-8.249,4.416-.908.795-4.669,3.854-5.625,4.9-4.192,4.593-6.1,9.37-9.409,9.159C.136,17.426-.525,29.712,7.05,34.667c3.636,2.378,10.483-2.017,15.329-5.639a19.369,19.369,0,0,1,9.185-3.949S33.5,8.551,31.389,4.514Z" transform="matrix(0.94, 0.342, -0.342, 0.94, 20.734, 0.79)" fill="#2962ff"/>
        <path id="Dlan-3" data-name="Dlan" d="M.319,10.765s-1.97-5.4.188-9.053S5.118.429,5.758,2.269,4.578,6.112,5.322,6.017,6,3.526,6.844,3.7,7.861,4.852,7.425,6a11.581,11.581,0,0,1-1.87,2.944c-.715.931-.182,1.517-.182,1.517Z" transform="translate(1.157 -5.532) rotate(-9)" fill="#a1887f"/>
        <path id="Sjena-10" data-name="Sjena" d="M-1.139-.089A14.132,14.132,0,0,0,.381,2.165,3.588,3.588,0,0,0,2.213,3.186L2.437,2.4l.557-1.071Z" transform="matrix(-0.643, -0.766, 0.766, -0.643, 23.003, 28.614)" opacity="0.3"/>
        <path id="Podlaktica-3" data-name="Podlaktica" d="M10.394,14.521c4.94-1.494,6.644-2.391,13.043-3.993a41.241,41.241,0,0,1,12.847-.889l.658-6.07s-5-.413-12.876-.485a178.421,178.421,0,0,0-18.554.6C-2.338,4.51.374,17.552,10.394,14.521Z" transform="translate(12.422 40.382) rotate(-111)" fill="#2962ff"/>
      </g>
      <g id="Tijelo-3" data-name="Tijelo" transform="translate(56.36 4.146)">
        <path id="Sjena-11" data-name="Sjena" d="M2.686.6s.484,14.555,1.427,25.84A170.229,170.229,0,0,0,6.886,46.177l2.092-.127s-1.558-8.489-2.8-19.9S4.022.416,4.022.416Z" transform="matrix(-0.087, 0.996, -0.996, -0.087, 47.69, 111.016)" opacity="0.3"/>
        <path id="Faca" d="M10.562,32.728a18.473,18.473,0,0,0,.775-6.92,36.535,36.535,0,0,0-1.46-6.148L22.39,19a17.385,17.385,0,0,0-.971,6.275,23.768,23.768,0,0,0,1.656,6.792Z" transform="translate(5.919 -0.125)" fill="#a1887f"/>
        <path id="Tijelo-4" data-name="Tijelo" d="M58.186,85.246s-11.9-.153-24.953.2-24.94,1.709-24.94,1.709,1.8-9.738,1.094-27.8S5.9,30.55,8.605,15.9,23.918,3.473,23.4,1.414c1.918-.452,3.15.436,6.49.492S36-.618,38.015.392c7.433.918,15.655,6.217,17.979,13.59,4.428,14.045-5.549,24.059-5.076,42.519S58.186,85.246,58.186,85.246Z" transform="matrix(1, 0.017, -0.017, 1, -7.191, 27.406)" fill="#2962ff"/>
        <path id="Path_52" data-name="Path 52" d="M13,0c7.18,0,13,7.611,13,17S20.18,34,13,34,1.153,27.1,2.618,17.265,5.82,0,13,0Z" transform="translate(7.522 -8.938)" fill="#a1887f"/>
      </g>
      <g id="Lijeva_ruka-2" data-name="Lijeva ruka" transform="matrix(0.996, -0.087, 0.087, 0.996, 84.895, 35.703)">
        <path id="Dlan-4" data-name="Dlan" d="M6.159,0A29.7,29.7,0,0,1,8.092,4.014c.581,1.763,1.152,3.114-.264,3.736-3.013,1.322.112-2.27-1.155-2.5s3.385,1.635.411,3.657S1.5,11.19.3,8.982,1.141.338,1.141.338Z" transform="matrix(-0.875, -0.485, 0.485, -0.875, 66.145, 7.233)" fill="#a1887f"/>
        <path id="Sjena-12" data-name="Sjena" d="M.159,7.045A44.716,44.716,0,0,1,1.714.86c.8-2.018,1.646-1.887,1.646-1.887L2.668,6.6Z" transform="matrix(0.454, -0.891, 0.891, 0.454, 11.299, 24.219)" opacity="0.3"/>
        <path id="Podlaktica-4" data-name="Podlaktica" d="M6.27,35.31-.148,33.342A255.35,255.35,0,0,1,10.536,6.516c6.023-12.562,14.442-5.775,11,3.215-1.289,3.371-3.83,5.28-8.616,11.868A46.109,46.109,0,0,0,6.27,35.31Z" transform="translate(59.969 38.619) rotate(-169)" fill="#2962ff"/>
        <path id="Nadlaktica-4" data-name="Nadlaktica" d="M7.109,0,0,13.925A110.513,110.513,0,0,0,16.137,25.1c7.983,4.281,14.356,9.341,21.294,10.241s8.844-1.644,6.033-6.932S36.1,23.564,28.9,14.93,7.109,0,7.109,0Z" transform="translate(2.204 0.15)" fill="#2962ff"/>
      </g>
      <path id="Kosa-2" data-name="Kosa" d="M2008.821,283.782c2.118,1.644,4.5-3.448,6.043-7.161s1.944-9.342-.691-13.038-10.91-7.151-17.178-6.913-17.43-.693-10.221,5.121,10.08,5.756,13.47,6.745,2.856,1.337,7.062,6.164c.807.927.636-1.758,2.455-1.7a1.916,1.916,0,0,1,1.182,3.3c-.879.97-1.795.21-2.121,1.485C2008.457,279.2,2007.915,281.913,2008.821,283.782Z" transform="translate(-1934.41 -157.014) rotate(-3)" fill="#3e2723"/>
    </g>
    <g id="Trofej" transform="translate(62 69)">
      <g id="Postolje" transform="translate(78.97 308.027)">
        <rect id="Dno" width="55" height="4" transform="translate(0.03 36.973)" fill="#0d47a1"/>
        <rect id="Pozadina" width="47" height="37" transform="translate(4.03 -0.027)" fill="#1565c0"/>
        <rect id="Sjetlost" width="16" height="37" transform="translate(33.03 -0.027)" fill="#fff" opacity="0.3"/>
        <rect id="Natpis" width="26" height="11" transform="translate(15.03 7.973)" fill="#bbdefb"/>
      </g>
      <g id="Srednji_dio" data-name="Srednji dio" transform="translate(90.493 275.488)">
        <path id="Pozadina-2" data-name="Pozadina" d="M11,0H22l11,32.994H0Z" transform="translate(0 0)" fill="#ffc400"/>
        <path id="Svjetlost" d="M1910.567,364.994l-11-32.994h-1.211l8.543,32.994h3.666" transform="translate(-1879.405 -332)" fill="#ffe57f"/>
        <path id="Tamni_dio" data-name="Tamni dio" d="M1877.5,364.994H1861L1872,332h5.5Z" transform="translate(-1861 -332)" fill="#ffab00"/>
      </g>
      <g id="Ručke" transform="translate(55 214.998)">
        <path id="Ručka_dva" data-name="Ručka dva" d="M1971.33,200h23.829s2.154,16.385-12.831,36.66S1953,251.324,1953,251.324Z" transform="translate(-1883.346 -200)" fill="none" stroke="#ffab00" stroke-width="5"/>
        <path id="Ručka_jedan" data-name="Ručka jedan" d="M1976.937,200h-23.829s-2.154,16.385,12.831,36.66,29.328,14.664,29.328,14.664Z" transform="translate(-1953 -200)" fill="none" stroke="#ffab00" stroke-width="5"/>
      </g>
      <g id="Gornji_dio" data-name="Gornji dio" transform="translate(68.447 204)">
        <path id="Pozadina-3" data-name="Pozadina" d="M0,0H76.629S69.085,79.1,38.434,78.819,0,0,0,0Z" transform="translate(0 0)" fill="#ffab00"/>
        <path id="Svjetlost-2" data-name="Svjetlost" d="M11,0,23.829.224A241.1,241.1,0,0,1,16.5,33.217,110.338,110.338,0,0,1,0,66.212,165.789,165.789,0,0,0,8.6,32.957,257.02,257.02,0,0,0,11,0Z" transform="matrix(1, -0.017, 0.017, 1, 47.705, 5.691)" fill="#ffe57f"/>
        <path id="Tamnija_svjetlost" data-name="Tamnija svjetlost" d="M11,66.212l12.826-.224A241.1,241.1,0,0,0,16.5,32.994,110.337,110.337,0,0,0,0,0,165.789,165.789,0,0,1,8.6,33.254,257.02,257.02,0,0,1,11,66.212Z" transform="matrix(-1, -0.017, 0.017, -1, 28.223, 71.488)" fill="#ffe57f" opacity="0.5"/>
      </g>
    </g>
    <path id="Path_53" data-name="Path 53" d="M1.885-.047C2.714-.047,3.126,2.3,3.126,2.3s.075,2.739-1.1,2.665S.806,3.82.806,2.439,1.057-.047,1.885-.047Z" transform="matrix(0.799, -0.602, 0.602, 0.799, 131.798, 322.406)" fill="#a1887f"/>
    <path id="Path_54" data-name="Path 54" d="M1.025-.688c1.125-.185,1.606.177,1.756.619s-.227.924-.927.835-.76,1.311-.76,1.008S-.1-.5,1.025-.688Z" transform="matrix(0.799, -0.602, 0.602, 0.799, 128.758, 325.354)" fill="#a1887f"/>
    <path id="Path_55" data-name="Path 55" d="M2.251-.214c1.114,0,2.126-.043,2.126.233S3.128,1,2.014,1,.406.278.406,0,1.137-.214,2.251-.214Z" transform="translate(210.353 323.74) rotate(-51)" fill="#a1887f"/>
    <path id="Path_56" data-name="Path 56" d="M-.617,2.1c.392.107,2.009-.124,2.009-.4S.978-.067.446-.067a.836.836,0,0,0-.7,1.205C.009,1.749-1.009,1.989-.617,2.1Z" transform="matrix(0.574, -0.819, 0.819, 0.574, 215.715, 322.701)" fill="#a1887f"/>
  </g>
</svg>
